<?xml version="1.0" standalone="no"?>
<!DOCTYPE svg PUBLIC "-//W3C//DTD SVG 20010904//EN"
 "http://www.w3.org/TR/2001/REC-SVG-20010904/DTD/svg10.dtd">
<svg version="1.0" xmlns="http://www.w3.org/2000/svg"
 width="215.000000pt" height="215.000000pt" viewBox="0 0 215.000000 215.000000"
 preserveAspectRatio="xMidYMid meet">
<metadata>
Created by potrace 1.11, written by Peter Selinger 2001-2013
</metadata>
<g transform="translate(0.000000,215.000000) scale(0.100000,-0.100000)"
fill="#000000" stroke="none">
<path d="M1508 1980 c-106 -22 -175 -58 -243 -128 -121 -123 -128 -334 -16
-476 57 -71 142 -125 295 -186 200 -79 248 -117 250 -199 2 -88 -59 -136 -171
-134 -109 2 -205 64 -285 181 -17 26 -32 49 -34 50 -1 2 -36 -21 -76 -51 -41
-30 -83 -59 -93 -65 -51 -30 -56 -38 -42 -68 64 -147 242 -279 424 -314 89
-18 242 -8 323 20 128 45 219 123 269 229 23 49 26 68 26 161 0 92 -3 112 -26
161 -31 65 -103 144 -174 188 -27 17 -106 54 -176 81 -209 81 -254 114 -254
190 0 70 61 109 160 101 73 -5 153 -57 209 -136 14 -19 16 -19 43 -4 50 29
147 82 175 96 15 8 30 19 34 24 3 6 -11 35 -32 65 -124 181 -347 263 -586 214z"/>
<path d="M462 1255 c0 -490 -4 -719 -11 -738 -33 -85 -139 -104 -233 -42 l-37
25 -81 -105 c-44 -58 -83 -111 -86 -118 -3 -9 15 -23 53 -40 98 -44 116 -50
198 -67 41 -9 202 -7 242 3 167 41 265 122 294 242 9 37 13 243 13 788 1 407
-2 744 -6 750 -5 8 -63 11 -176 12 l-169 0 -1 -710z"/>
</g>
</svg>
